<?xml version="1.0" standalone="no"?>
<svg viewBox="0 0 200 200" xmlns="http://www.w3.org/2000/svg">
  <path fill="#5433DE" d="M29.7,-43.7C40,-39.6,51.1,-34,54,-25.3C56.9,-16.7,51.6,-5,46.2,4C40.7,12.9,35,19.2,28.7,23C22.4,26.8,15.6,28.2,9.7,27.4C3.8,26.6,-1.1,23.5,-13.8,28.3C-26.4,33.1,-46.9,45.7,-60.4,44.4C-73.9,43,-80.4,27.8,-74,15.9C-67.7,3.9,-48.3,-4.7,-41.6,-18.8C-34.9,-33,-40.7,-52.8,-35.9,-59.4C-31.1,-66,-15.5,-59.5,-2.9,-55C9.7,-50.4,19.3,-47.8,29.7,-43.7Z" transform="translate(100 100)" />
</svg>
